<svg xmlns="http://www.w3.org/2000/svg" width="500" height="500" style="width:100%;height:100%;transform:translate3d(0,0,0);content-visibility:visible" viewBox="0 0 500 500"><defs><clipPath id="c"><path d="M0 0h500v500H0z"/></clipPath><filter id="a" width="100%" height="100%" x="0%" y="0%" filterUnits="objectBoundingBox"><feComponentTransfer in="SourceGraphic"><feFuncA tableValues="1.0 0.0" type="table"/></feComponentTransfer></filter><mask id="d" mask-type="alpha"><g filter="url(#a)"><path fill="#fff" d="M0 0h500v500H0z" opacity="0"/><use xmlns:ns1="http://www.w3.org/1999/xlink" ns1:href="#b"/></g></mask><g id="b" fill="red" style="display:block"><path d="m393.784 252.18 26.337 18.047a3.006 3.006 0 0 1 1.282 2.905 158.753 158.753 0 0 1-16.459 50.745 3.003 3.003 0 0 1-2.745 1.6l-31.951-.893c-2.108-.059-3.616 2.017-2.91 4.004l10.696 30.08a3.005 3.005 0 0 1-.673 3.105 160.031 160.031 0 0 1-43.089 31.36 3.004 3.004 0 0 1-3.165-.318l-25.335-19.499c-1.67-1.286-4.111-.493-4.707 1.529l-9.041 30.661a3.002 3.002 0 0 1-2.369 2.116A159.894 159.894 0 0 1 263 409.834c-9.077 0-17.988-.747-26.655-2.212a3 3 0 0 1-2.369-2.116l-9.041-30.661c-.596-2.022-3.037-2.815-4.707-1.529l-25.335 19.499a3.004 3.004 0 0 1-3.165.318 160.031 160.031 0 0 1-43.089-31.36 3.005 3.005 0 0 1-.673-3.105l10.696-30.08c.706-1.987-.802-4.063-2.91-4.004l-31.951.893a3.003 3.003 0 0 1-2.745-1.6 158.753 158.753 0 0 1-16.459-50.745 3.006 3.006 0 0 1 1.282-2.905l26.337-18.047c1.739-1.192 1.739-3.757 0-4.949l-26.337-18.047a3.006 3.006 0 0 1-1.282-2.905 158.615 158.615 0 0 1 16.44-50.726 3.003 3.003 0 0 1 2.745-1.6l31.969.893c2.108.059 3.617-2.018 2.91-4.005l-10.712-30.095a3.004 3.004 0 0 1 .675-3.108 161.193 161.193 0 0 1 43.121-31.357 3.005 3.005 0 0 1 3.169.317l25.312 19.495c1.671 1.287 4.112.493 4.708-1.53l9.022-30.635a3 3 0 0 1 2.374-2.117A161.424 161.424 0 0 1 263 89.596c9.093 0 18.004.764 26.67 2.215a3 3 0 0 1 2.374 2.117l9.022 30.635c.596 2.023 3.037 2.817 4.708 1.53l25.312-19.495a3.005 3.005 0 0 1 3.169-.317 161.193 161.193 0 0 1 43.121 31.357 3.004 3.004 0 0 1 .675 3.108l-10.712 30.095c-.707 1.987.802 4.064 2.91 4.005l31.969-.893a3.003 3.003 0 0 1 2.745 1.6 158.615 158.615 0 0 1 16.44 50.726 3.006 3.006 0 0 1-1.282 2.905l-26.337 18.047c-1.739 1.192-1.739 3.757 0 4.949z"/><path d="M171.838 249.432c0 50.348 40.814 91.162 91.162 91.162 50.348 0 91.162-40.814 91.162-91.162 0-50.348-40.814-91.162-91.162-91.162-50.348 0-91.162 40.814-91.162 91.162z"/></g></defs><g clip-path="url(#c)"><g style="display:block"><path fill="#4BB3FD" d="m380.784 252.18 26.337 18.047a3.006 3.006 0 0 1 1.282 2.905 158.753 158.753 0 0 1-16.459 50.745 3.003 3.003 0 0 1-2.745 1.6l-31.951-.893c-2.108-.059-3.616 2.017-2.91 4.004l10.696 30.08a3.005 3.005 0 0 1-.673 3.105 160.031 160.031 0 0 1-43.089 31.36 3.004 3.004 0 0 1-3.165-.318l-25.335-19.499c-1.67-1.286-4.111-.493-4.707 1.529l-9.041 30.661a3.002 3.002 0 0 1-2.369 2.116A159.894 159.894 0 0 1 250 409.834c-9.077 0-17.988-.747-26.655-2.212a3 3 0 0 1-2.369-2.116l-9.041-30.661c-.596-2.022-3.037-2.815-4.707-1.529l-25.335 19.499a3.004 3.004 0 0 1-3.165.318 160.031 160.031 0 0 1-43.089-31.36 3.005 3.005 0 0 1-.673-3.105l10.696-30.08c.706-1.987-.802-4.063-2.91-4.004l-31.951.893a3.003 3.003 0 0 1-2.745-1.6 158.753 158.753 0 0 1-16.459-50.745 3.006 3.006 0 0 1 1.282-2.905l26.337-18.047c1.739-1.192 1.739-3.757 0-4.949l-26.337-18.047a3.006 3.006 0 0 1-1.282-2.905 158.615 158.615 0 0 1 16.44-50.726 3.003 3.003 0 0 1 2.745-1.6l31.969.893c2.108.059 3.617-2.018 2.91-4.005l-10.712-30.095a3.004 3.004 0 0 1 .675-3.108 161.193 161.193 0 0 1 43.121-31.357 3.005 3.005 0 0 1 3.169.317l25.312 19.495c1.671 1.287 4.112.493 4.708-1.53l9.022-30.635a3 3 0 0 1 2.374-2.117A161.424 161.424 0 0 1 250 89.596c9.093 0 18.004.764 26.67 2.215a3 3 0 0 1 2.374 2.117l9.022 30.635c.596 2.023 3.037 2.817 4.708 1.53l25.312-19.495a3.005 3.005 0 0 1 3.169-.317 161.193 161.193 0 0 1 43.121 31.357 3.004 3.004 0 0 1 .675 3.108l-10.712 30.095c-.707 1.987.802 4.064 2.91 4.005l31.969-.893a3.003 3.003 0 0 1 2.745 1.6 158.615 158.615 0 0 1 16.44 50.726 3.006 3.006 0 0 1-1.282 2.905l-26.337 18.047c-1.739 1.192-1.739 3.757 0 4.949z"/><path fill="#EBE6EF" d="M158.838 249.432c0 50.348 40.814 91.162 91.162 91.162 50.348 0 91.162-40.814 91.162-91.162 0-50.348-40.814-91.162-91.162-91.162-50.348 0-91.162 40.814-91.162 91.162z"/></g><g mask="url(#d)" opacity=".5" style="mix-blend-mode:multiply;display:block"><path fill="#4BB3FD" d="m380.784 252.18 26.337 18.047a3.006 3.006 0 0 1 1.282 2.905 158.753 158.753 0 0 1-16.459 50.745 3.003 3.003 0 0 1-2.745 1.6l-31.951-.893c-2.108-.059-3.616 2.017-2.91 4.004l10.696 30.08a3.005 3.005 0 0 1-.673 3.105 160.031 160.031 0 0 1-43.089 31.36 3.004 3.004 0 0 1-3.165-.318l-25.335-19.499c-1.67-1.286-4.111-.493-4.707 1.529l-9.041 30.661a3.002 3.002 0 0 1-2.369 2.116A159.894 159.894 0 0 1 250 409.834c-9.077 0-17.988-.747-26.655-2.212a3 3 0 0 1-2.369-2.116l-9.041-30.661c-.596-2.022-3.037-2.815-4.707-1.529l-25.335 19.499a3.004 3.004 0 0 1-3.165.318 160.031 160.031 0 0 1-43.089-31.36 3.005 3.005 0 0 1-.673-3.105l10.696-30.08c.706-1.987-.802-4.063-2.91-4.004l-31.951.893a3.003 3.003 0 0 1-2.745-1.6 158.753 158.753 0 0 1-16.459-50.745 3.006 3.006 0 0 1 1.282-2.905l26.337-18.047c1.739-1.192 1.739-3.757 0-4.949l-26.337-18.047a3.006 3.006 0 0 1-1.282-2.905 158.615 158.615 0 0 1 16.44-50.726 3.003 3.003 0 0 1 2.745-1.6l31.969.893c2.108.059 3.617-2.018 2.91-4.005l-10.712-30.095a3.004 3.004 0 0 1 .675-3.108 161.193 161.193 0 0 1 43.121-31.357 3.005 3.005 0 0 1 3.169.317l25.312 19.495c1.671 1.287 4.112.493 4.708-1.53l9.022-30.635a3 3 0 0 1 2.374-2.117A161.424 161.424 0 0 1 250 89.596c9.093 0 18.004.764 26.67 2.215a3 3 0 0 1 2.374 2.117l9.022 30.635c.596 2.023 3.037 2.817 4.708 1.53l25.312-19.495a3.005 3.005 0 0 1 3.169-.317 161.193 161.193 0 0 1 43.121 31.357 3.004 3.004 0 0 1 .675 3.108l-10.712 30.095c-.707 1.987.802 4.064 2.91 4.005l31.969-.893a3.003 3.003 0 0 1 2.745 1.6 158.615 158.615 0 0 1 16.44 50.726 3.006 3.006 0 0 1-1.282 2.905l-26.337 18.047c-1.739 1.192-1.739 3.757 0 4.949z" opacity="1"/><path fill="#EBE6EF" d="M158.838 249.432c0 50.348 40.814 91.162 91.162 91.162 50.348 0 91.162-40.814 91.162-91.162 0-50.348-40.814-91.162-91.162-91.162-50.348 0-91.162 40.814-91.162 91.162z" opacity="1"/></g><path fill="none" stroke="#4BB3FD" stroke-linecap="round" stroke-linejoin="round" stroke-width="7" d="M252.229 227.531h15.352c7.363 0 13.396 5.459 13.396 12.132 0 3.329-1.512 6.36-3.94 8.562-2.428 2.195-5.778 3.562-9.456 3.562h-15.352m-.002-24.255v45.256m-18.728 0-18.93-45.576-20.23 45.576m34.502-11.214h-29.524m102.343 11.215v-45.258" style="display:block"/><path fill="none" stroke="#121331" stroke-linecap="round" stroke-linejoin="round" stroke-width="7" d="m127.173-.01 31.488 21.577c-2.592 19.404-8.692 37.702-17.593 54.247l-38.198-1.067 12.79 35.967a160.012 160.012 0 0 1-46.069 33.528l-30.288-23.311-10.807 36.653c-9.244 1.677-18.775 2.535-28.496 2.535s-19.252-.858-28.496-2.535l-10.807-36.653-30.288 23.311a160.012 160.012 0 0 1-46.069-33.528l12.79-35.967-38.198 1.067c-8.901-16.545-15.001-34.843-17.593-54.247L-127.173-.01l-31.488-21.576a158.641 158.641 0 0 1 17.574-54.228l38.217 1.068-12.809-35.987a161.164 161.164 0 0 1 46.108-33.528l30.268 23.312 10.788-36.635A161.338 161.338 0 0 1 0-160.119c9.74 0 19.271.876 28.515 2.535l10.788 36.635 30.268-23.312a161.164 161.164 0 0 1 46.108 33.528L102.87-74.746l38.217-1.068a158.641 158.641 0 0 1 17.574 54.228L127.173-.01z" style="display:block" transform="translate(250 250)"/><path fill="none" stroke="#121331" stroke-linecap="round" stroke-linejoin="round" stroke-width="7" d="M-91.162 0c0 50.348 40.814 91.162 91.162 91.162 50.348 0 91.162-40.814 91.162-91.162 0-50.348-40.814-91.162-91.162-91.162-50.348 0-91.162 40.814-91.162 91.162z" style="display:block" transform="translate(250 250)"/><g class="com" style="display:none"><path/><path/><path/><path/><path/><path/><path/><path/><path/><path/><path/><path/></g></g></svg>