<!DOCTYPE svg PUBLIC "-//W3C//DTD SVG 1.1//EN" "http://www.w3.org/Graphics/SVG/1.1/DTD/svg11.dtd">
<!-- Uploaded to: SVG Repo, www.svgrepo.com, Transformed by: SVG Repo Mixer Tools -->
<svg fill="#212529" version="1.1" id="Capa_1" xmlns="http://www.w3.org/2000/svg" xmlns:xlink="http://www.w3.org/1999/xlink" width="170px" height="170px" viewBox="-2.64 -2.64 38.28 38.28" xml:space="preserve" stroke="#212529" transform="matrix(-1, 0, 0, 1, 0, 0)">
<g id="SVGRepo_bgCarrier" stroke-width="0"/>
<g id="SVGRepo_tracerCarrier" stroke-linecap="round" stroke-linejoin="round"/>
<g id="SVGRepo_iconCarrier"> <g> <path d="M16.5,0C7.388,0,0,7.388,0,16.5C0,25.611,7.388,33,16.5,33C25.611,33,33,25.611,33,16.5C33,7.388,25.611,0,16.5,0z M25.643,22.107l-3.535,3.535L16.5,20.035l-5.607,5.607l-3.535-3.535l5.607-5.607l-5.607-5.607l3.535-3.535l5.607,5.607 l5.607-5.607l3.535,3.535L20.035,16.5L25.643,22.107z"/> </g> </g>
</svg>